<svg width="120" height="60" viewBox="0 0 120 60" fill="none" xmlns="http://www.w3.org/2000/svg">
<path d="M6.0439 48.5375C8.23659 44.3789 9.33294 42.2996 11.2391 41.1498C13.1452 40 15.4958 40 20.197 40H99.5219C104.128 40 106.431 40 108.313 41.1113C110.196 42.2226 111.308 44.2394 113.532 48.273L120 60H0L6.0439 48.5375Z" fill="#242424"/>
<rect x="47.1316" y="5.69727" width="2.34866" height="2.74011" fill="#E25822"/>
<path d="M58.8749 2.56543H61.2235V5.30554H58.8749V2.56543Z" fill="#E25822"/>
<rect x="70.6182" y="5.69727" width="2.34866" height="2.74011" fill="#E25822"/>
<path d="M74.3542 14.7371V11.558C74.3542 10.5633 73.5449 9.75405 72.5502 9.75405H72.2919V9.1327C73.0879 8.88729 73.6681 8.14477 73.6681 7.26929C73.6681 6.37455 72.5159 4.89303 72.1628 4.46023C72.0539 4.32674 71.8908 4.24937 71.7185 4.24937C71.5463 4.24937 71.3831 4.32681 71.2742 4.46023C70.9211 4.89303 69.7689 6.37455 69.7689 7.26929C69.7689 8.14477 70.3491 8.88721 71.1451 9.1327V9.75405H70.8868C69.8921 9.75405 69.0828 10.5633 69.0828 11.558V14.7371C68.1569 14.8497 67.4371 15.6401 67.4371 16.5959C67.4371 17.6287 68.2774 18.469 69.3102 18.469H69.9983V18.4915C69.9983 22.0207 67.1271 24.8918 63.598 24.8918H61.7413V15.2586H62.4548C63.4876 15.2586 64.3279 14.4183 64.3279 13.3855C64.3279 12.4297 63.6081 11.6393 62.6822 11.5267V8.34684C62.6822 7.35217 61.873 6.54291 60.8783 6.54291H60.6199V5.875C61.4027 5.62164 61.9706 4.886 61.9706 4.01993C61.9706 3.12519 60.8185 1.64367 60.4653 1.21086C60.3565 1.07745 60.1933 1 60.0211 1C59.8488 1 59.6857 1.07745 59.5768 1.21086C59.2236 1.64367 58.0715 3.12519 58.0715 4.01993C58.0715 4.90465 58.6642 5.65321 59.4731 5.8906V6.54291H59.2148C58.2201 6.54291 57.4109 7.35217 57.4109 8.34684V11.5267C56.485 11.6393 55.7652 12.4297 55.7652 13.3855C55.7652 14.4183 56.6055 15.2586 57.6383 15.2586H58.3009V24.8918H56.4442C52.9151 24.8918 50.0439 22.0207 50.0439 18.4915V18.469H50.6898C51.7226 18.469 52.5629 17.6287 52.5629 16.5959C52.5629 15.6401 51.8431 14.8497 50.9172 14.7371V11.558C50.9172 10.5633 50.1079 9.75405 49.1132 9.75405H48.8549V9.1327C49.6509 8.88729 50.2311 8.14477 50.2311 7.26929C50.2311 6.37455 49.0789 4.89303 48.7258 4.46023C48.6169 4.32674 48.4537 4.24937 48.2815 4.24937C48.1092 4.24937 47.9461 4.32681 47.8372 4.46023C47.484 4.89295 46.3318 6.37448 46.3318 7.26922C46.3318 8.14469 46.912 8.88714 47.708 9.13263V9.75397H47.4497C46.455 9.75397 45.6457 10.5632 45.6457 11.5579V14.737C44.7198 14.8496 44 15.64 44 16.5958C44 17.6286 44.8403 18.4689 45.8731 18.4689H46.6034V18.4914C46.6034 19.7099 46.8246 20.9 47.2608 22.0289C47.3487 22.2563 47.5657 22.3957 47.7958 22.3957C47.8645 22.3957 47.9344 22.3832 48.0024 22.357C48.2977 22.2429 48.4446 21.9109 48.3305 21.6155C47.9455 20.6191 47.7502 19.568 47.7502 18.4915V18.469H48.897V18.4915C48.897 22.653 52.2826 26.0386 56.4442 26.0386H58.8743C59.1909 26.0386 59.4477 25.7819 59.4477 25.4652V15.2586H60.5945V25.4652C60.5945 25.7819 60.8512 26.0386 61.1679 26.0386H63.598C67.7595 26.0386 71.1451 22.653 71.1451 18.4915V18.469H72.2919V18.4915C72.2919 23.2854 68.3918 27.1855 63.598 27.1855H61.1679C60.8512 27.1855 60.5945 27.4422 60.5945 27.7589V33.7987H59.4477V27.7589C59.4477 27.4422 59.1909 27.1855 58.8743 27.1855H56.4442C53.7648 27.1855 51.2737 25.973 49.6096 23.8588C49.4136 23.6099 49.0532 23.567 48.8044 23.7628C48.5555 23.9587 48.5126 24.3192 48.7084 24.5681C50.5914 26.9602 53.4109 28.3322 56.4442 28.3322H58.3008V33.7987H54.9676C53.9348 33.7987 53.0945 34.639 53.0945 35.6718C53.0945 35.9293 53.1467 36.1747 53.2411 36.3981H52.6433C51.6105 36.3981 50.7702 37.2384 50.7702 38.2713C50.7702 39.3041 51.6105 40.1444 52.6433 40.1444H62.7838C63.5013 40.1444 63.534 38.9976 62.7838 38.9976H52.6433C52.2428 38.9976 51.917 38.6717 51.917 38.2713C51.917 37.8708 52.2428 37.545 52.6433 37.545H67.3989C67.7993 37.545 68.1252 37.8708 68.1252 38.2713C68.1252 38.6717 67.7993 38.9976 67.3989 38.9976H65.831C65.1135 38.9976 65.0808 40.1444 65.831 40.1444H67.3989C68.4317 40.1444 69.272 39.3041 69.272 38.2713C69.272 37.2384 68.4317 36.3981 67.3989 36.3981H66.8011C66.8954 36.1747 66.9477 35.9293 66.9477 35.6718C66.9477 34.639 66.1074 33.7987 65.0746 33.7987H61.7414V28.3323H63.598C69.0243 28.3323 73.4388 23.9177 73.4388 18.4915V18.469H74.1269C75.1597 18.469 76 17.6287 76 16.5959C75.9999 15.6401 75.2801 14.8497 74.3542 14.7371ZM48.2814 5.76958C48.7411 6.41683 49.0842 7.04276 49.0842 7.26922C49.0842 7.71189 48.7241 8.07198 48.2814 8.07198C47.8387 8.07198 47.4787 7.71189 47.4787 7.26922C47.4787 7.04276 47.8217 6.41676 48.2814 5.76958ZM46.7926 11.5579C46.7926 11.1956 47.0873 10.9008 47.4497 10.9008H49.1132C49.4755 10.9008 49.7703 11.1956 49.7703 11.5579V14.7228H46.7926V11.5579ZM45.8731 17.3222C45.4727 17.3222 45.1468 16.9964 45.1468 16.5959C45.1468 16.1954 45.4727 15.8696 45.8731 15.8696H50.6897C51.0902 15.8696 51.416 16.1954 51.416 16.5959C51.416 16.9964 51.0902 17.3222 50.6897 17.3222H45.8731ZM59.2183 4.01993C59.2183 3.79347 59.5613 3.16747 60.0211 2.52029C60.4808 3.16754 60.8238 3.79347 60.8238 4.01993C60.8238 4.4626 60.4637 4.82269 60.0211 4.82269C59.5784 4.82269 59.2183 4.4626 59.2183 4.01993ZM58.5577 8.34684C58.5577 7.98452 58.8525 7.68971 59.2148 7.68971C59.7617 7.66701 60.3314 7.66708 60.8783 7.68971C61.2406 7.68971 61.5354 7.98452 61.5354 8.34684V11.5117H58.5577V8.34684ZM57.6383 14.1118C57.2378 14.1118 56.912 13.786 56.912 13.3855C56.912 12.9851 57.2378 12.6592 57.6383 12.6592H62.4549C62.8554 12.6592 63.1812 12.9851 63.1812 13.3855C63.1812 13.786 62.8554 14.1118 62.4549 14.1118H57.6383ZM65.0745 34.9455C65.475 34.9455 65.8008 35.2714 65.8008 35.6718C65.8008 36.0723 65.475 36.3981 65.0745 36.3981H54.9676C54.5671 36.3981 54.2413 36.0723 54.2413 35.6718C54.2413 35.2714 54.5671 34.9455 54.9676 34.9455H65.0745ZM70.9157 7.26922C70.9157 7.04276 71.2588 6.41676 71.7185 5.76958C72.1782 6.41683 72.5213 7.04276 72.5213 7.26922C72.5213 7.71189 72.1612 8.07198 71.7185 8.07198C71.2758 8.07198 70.9157 7.71189 70.9157 7.26922ZM70.2296 11.5579C70.2296 11.1956 70.5245 10.9008 70.8868 10.9008H72.5502C72.9126 10.9008 73.2074 11.1956 73.2074 11.5579V14.7228C72.2148 14.7228 71.2222 14.7228 70.2296 14.7228V11.5579ZM74.1268 17.3222H69.3102C68.9097 17.3222 68.5839 16.9964 68.5839 16.5959C68.5839 16.1954 68.9097 15.8696 69.3102 15.8696H74.1268C74.5273 15.8696 74.8531 16.1954 74.8531 16.5959C74.8531 16.9964 74.5273 17.3222 74.1268 17.3222Z" fill="#848485"/>
<path d="M74.3542 14.7371V11.558C74.3542 10.5633 73.5449 9.75405 72.5502 9.75405H72.2919V9.1327C73.0879 8.88729 73.6681 8.14477 73.6681 7.26929C73.6681 6.37455 72.5159 4.89303 72.1628 4.46023C72.0539 4.32674 71.8908 4.24937 71.7185 4.24937C71.5463 4.24937 71.3831 4.32681 71.2742 4.46023C70.9211 4.89303 69.7689 6.37455 69.7689 7.26929C69.7689 8.14477 70.3491 8.88721 71.1451 9.1327V9.75405H70.8868C69.8921 9.75405 69.0828 10.5633 69.0828 11.558V14.7371C68.1569 14.8497 67.4371 15.6401 67.4371 16.5959C67.4371 17.6287 68.2774 18.469 69.3102 18.469H69.9983V18.4915C69.9983 22.0207 67.1271 24.8918 63.598 24.8918H61.7413V15.2586H62.4548C63.4876 15.2586 64.3279 14.4183 64.3279 13.3855C64.3279 12.4297 63.6081 11.6393 62.6822 11.5267V8.34684C62.6822 7.35217 61.873 6.54291 60.8783 6.54291H60.6199V5.875C61.4027 5.62164 61.9706 4.886 61.9706 4.01993C61.9706 3.12519 60.8185 1.64367 60.4653 1.21086C60.3565 1.07745 60.1933 1 60.0211 1C59.8488 1 59.6857 1.07745 59.5768 1.21086C59.2236 1.64367 58.0715 3.12519 58.0715 4.01993C58.0715 4.90465 58.6642 5.65321 59.4731 5.8906V6.54291H59.2148C58.2201 6.54291 57.4109 7.35217 57.4109 8.34684V11.5267C56.485 11.6393 55.7652 12.4297 55.7652 13.3855C55.7652 14.4183 56.6055 15.2586 57.6383 15.2586H58.3009V24.8918H56.4442C52.9151 24.8918 50.0439 22.0207 50.0439 18.4915V18.469H50.6898C51.7226 18.469 52.5629 17.6287 52.5629 16.5959C52.5629 15.6401 51.8431 14.8497 50.9172 14.7371V11.558C50.9172 10.5633 50.1079 9.75405 49.1132 9.75405H48.8549V9.1327C49.6509 8.88729 50.2311 8.14477 50.2311 7.26929C50.2311 6.37455 49.0789 4.89303 48.7258 4.46023C48.6169 4.32674 48.4537 4.24937 48.2815 4.24937C48.1092 4.24937 47.9461 4.32681 47.8372 4.46023C47.484 4.89295 46.3318 6.37448 46.3318 7.26922C46.3318 8.14469 46.912 8.88714 47.708 9.13263V9.75397H47.4497C46.455 9.75397 45.6457 10.5632 45.6457 11.5579V14.737C44.7198 14.8496 44 15.64 44 16.5958C44 17.6286 44.8403 18.4689 45.8731 18.4689H46.6034V18.4914C46.6034 19.7099 46.8246 20.9 47.2608 22.0289C47.3487 22.2563 47.5657 22.3957 47.7958 22.3957C47.8645 22.3957 47.9344 22.3832 48.0024 22.357C48.2977 22.2429 48.4446 21.9109 48.3305 21.6155C47.9455 20.6191 47.7502 19.568 47.7502 18.4915V18.469H48.897V18.4915C48.897 22.653 52.2826 26.0386 56.4442 26.0386H58.8743C59.1909 26.0386 59.4477 25.7819 59.4477 25.4652V15.2586H60.5945V25.4652C60.5945 25.7819 60.8512 26.0386 61.1679 26.0386H63.598C67.7595 26.0386 71.1451 22.653 71.1451 18.4915V18.469H72.2919V18.4915C72.2919 23.2854 68.3918 27.1855 63.598 27.1855H61.1679C60.8512 27.1855 60.5945 27.4422 60.5945 27.7589V33.7987H59.4477V27.7589C59.4477 27.4422 59.1909 27.1855 58.8743 27.1855H56.4442C53.7648 27.1855 51.2737 25.973 49.6096 23.8588C49.4136 23.6099 49.0532 23.567 48.8044 23.7628C48.5555 23.9587 48.5126 24.3192 48.7084 24.5681C50.5914 26.9602 53.4109 28.3322 56.4442 28.3322H58.3008V33.7987H54.9676C53.9348 33.7987 53.0945 34.639 53.0945 35.6718C53.0945 35.9293 53.1467 36.1747 53.2411 36.3981H52.6433C51.6105 36.3981 50.7702 37.2384 50.7702 38.2713C50.7702 39.3041 51.6105 40.1444 52.6433 40.1444H62.7838C63.5013 40.1444 63.534 38.9976 62.7838 38.9976H52.6433C52.2428 38.9976 51.917 38.6717 51.917 38.2713C51.917 37.8708 52.2428 37.545 52.6433 37.545H67.3989C67.7993 37.545 68.1252 37.8708 68.1252 38.2713C68.1252 38.6717 67.7993 38.9976 67.3989 38.9976H65.831C65.1135 38.9976 65.0808 40.1444 65.831 40.1444H67.3989C68.4317 40.1444 69.272 39.3041 69.272 38.2713C69.272 37.2384 68.4317 36.3981 67.3989 36.3981H66.8011C66.8954 36.1747 66.9477 35.9293 66.9477 35.6718C66.9477 34.639 66.1074 33.7987 65.0746 33.7987H61.7414V28.3323H63.598C69.0243 28.3323 73.4388 23.9177 73.4388 18.4915V18.469H74.1269C75.1597 18.469 76 17.6287 76 16.5959C75.9999 15.6401 75.2801 14.8497 74.3542 14.7371ZM48.2814 5.76958C48.7411 6.41683 49.0842 7.04276 49.0842 7.26922C49.0842 7.71189 48.7241 8.07198 48.2814 8.07198C47.8387 8.07198 47.4787 7.71189 47.4787 7.26922C47.4787 7.04276 47.8217 6.41676 48.2814 5.76958ZM46.7926 11.5579C46.7926 11.1956 47.0873 10.9008 47.4497 10.9008H49.1132C49.4755 10.9008 49.7703 11.1956 49.7703 11.5579V14.7228H46.7926V11.5579ZM45.8731 17.3222C45.4727 17.3222 45.1468 16.9964 45.1468 16.5959C45.1468 16.1954 45.4727 15.8696 45.8731 15.8696H50.6897C51.0902 15.8696 51.416 16.1954 51.416 16.5959C51.416 16.9964 51.0902 17.3222 50.6897 17.3222H45.8731ZM59.2183 4.01993C59.2183 3.79347 59.5613 3.16747 60.0211 2.52029C60.4808 3.16754 60.8238 3.79347 60.8238 4.01993C60.8238 4.4626 60.4637 4.82269 60.0211 4.82269C59.5784 4.82269 59.2183 4.4626 59.2183 4.01993ZM58.5577 8.34684C58.5577 7.98452 58.8525 7.68971 59.2148 7.68971C59.7617 7.66701 60.3314 7.66708 60.8783 7.68971C61.2406 7.68971 61.5354 7.98452 61.5354 8.34684V11.5117H58.5577V8.34684ZM57.6383 14.1118C57.2378 14.1118 56.912 13.786 56.912 13.3855C56.912 12.9851 57.2378 12.6592 57.6383 12.6592H62.4549C62.8554 12.6592 63.1812 12.9851 63.1812 13.3855C63.1812 13.786 62.8554 14.1118 62.4549 14.1118H57.6383ZM65.0745 34.9455C65.475 34.9455 65.8008 35.2714 65.8008 35.6718C65.8008 36.0723 65.475 36.3981 65.0745 36.3981H54.9676C54.5671 36.3981 54.2413 36.0723 54.2413 35.6718C54.2413 35.2714 54.5671 34.9455 54.9676 34.9455H65.0745ZM70.9157 7.26922C70.9157 7.04276 71.2588 6.41676 71.7185 5.76958C72.1782 6.41683 72.5213 7.04276 72.5213 7.26922C72.5213 7.71189 72.1612 8.07198 71.7185 8.07198C71.2758 8.07198 70.9157 7.71189 70.9157 7.26922ZM70.2296 11.5579C70.2296 11.1956 70.5245 10.9008 70.8868 10.9008H72.5502C72.9126 10.9008 73.2074 11.1956 73.2074 11.5579V14.7228C72.2148 14.7228 71.2222 14.7228 70.2296 14.7228V11.5579ZM74.1268 17.3222H69.3102C68.9097 17.3222 68.5839 16.9964 68.5839 16.5959C68.5839 16.1954 68.9097 15.8696 69.3102 15.8696H74.1268C74.5273 15.8696 74.8531 16.1954 74.8531 16.5959C74.8531 16.9964 74.5273 17.3222 74.1268 17.3222Z" fill="#848485"/>
<g clip-path="url(#clip0)">
<path d="M50.9678 7.11649C50.9678 8.56392 49.8161 9.73712 48.3992 9.74984C49.3835 9.73499 50.1777 8.78182 50.1778 7.60802C50.1778 6.42162 48.3759 4.90564 48.3759 4.90564C48.3759 4.90564 46.574 6.42162 46.574 7.60802C46.5742 8.78164 47.3682 9.73488 48.3523 9.74984C46.9354 9.73701 45.7841 8.5638 45.7841 7.11649C45.7841 5.66121 48.3759 3 48.3759 3C48.3759 3 50.9678 5.66121 50.9678 7.11649Z" fill="#E25822"/>
<path d="M50.1778 7.60765C50.1777 8.78145 49.3835 9.73463 48.3993 9.74947C48.3915 9.74965 48.3839 9.74965 48.3762 9.74965C48.9758 9.74947 49.4619 9.17153 49.4619 8.45862C49.4619 7.74345 48.3759 6.82967 48.3759 6.82967C48.3759 6.82967 47.2899 7.74345 47.2899 8.45862C47.2899 9.17118 47.7757 9.74888 48.3748 9.74965C48.3673 9.74965 48.3599 9.74965 48.3523 9.74947C47.3682 9.73451 46.5742 8.78127 46.574 7.60765C46.574 6.42125 48.3759 4.90527 48.3759 4.90527C48.3759 4.90527 50.1778 6.42125 50.1778 7.60765Z" fill="#E25822"/>
<path d="M48.3759 6.83008C48.3759 6.83008 49.4619 7.74386 49.4619 8.45903C49.4619 9.17194 48.9758 9.74988 48.3762 9.75006H48.3748C47.7757 9.74929 47.2899 9.17159 47.2899 8.45903C47.2899 7.74386 48.3759 6.83008 48.3759 6.83008Z" fill="#E25822"/>
</g>
<g clip-path="url(#clip1)">
<path d="M62.6678 4.11649C62.6678 5.56392 61.5161 6.73712 60.0992 6.74984C61.0835 6.73499 61.8777 5.78182 61.8778 4.60802C61.8778 3.42162 60.0759 1.90564 60.0759 1.90564C60.0759 1.90564 58.274 3.42162 58.274 4.60802C58.2742 5.78164 59.0682 6.73488 60.0523 6.74984C58.6354 6.73701 57.4841 5.5638 57.4841 4.11649C57.4841 2.66121 60.0759 0 60.0759 0C60.0759 0 62.6678 2.66121 62.6678 4.11649Z" fill="#E25822"/>
<path d="M61.8778 4.60765C61.8777 5.78145 61.0835 6.73463 60.0993 6.74947C60.0915 6.74965 60.0839 6.74965 60.0762 6.74965C60.6758 6.74947 61.1619 6.17153 61.1619 5.45862C61.1619 4.74345 60.0759 3.82967 60.0759 3.82967C60.0759 3.82967 58.9899 4.74345 58.9899 5.45862C58.9899 6.17118 59.4757 6.74888 60.0748 6.74965C60.0673 6.74965 60.0599 6.74965 60.0523 6.74947C59.0682 6.73451 58.2742 5.78127 58.274 4.60765C58.274 3.42125 60.0759 1.90527 60.0759 1.90527C60.0759 1.90527 61.8778 3.42125 61.8778 4.60765Z" fill="#E25822"/>
<path d="M60.0759 3.83008C60.0759 3.83008 61.1619 4.74386 61.1619 5.45903C61.1619 6.17194 60.6758 6.74988 60.0762 6.75006H60.0748C59.4757 6.74929 58.9899 6.17159 58.9899 5.45903C58.9899 4.74386 60.0759 3.83008 60.0759 3.83008Z" fill="#E25822"/>
</g>
<g clip-path="url(#clip2)">
<path d="M74.2678 7.36649C74.2678 8.81392 73.1161 9.98712 71.6992 9.99984C72.6835 9.98499 73.4777 9.03182 73.4778 7.85802C73.4778 6.67162 71.6759 5.15564 71.6759 5.15564C71.6759 5.15564 69.874 6.67162 69.874 7.85802C69.8742 9.03164 70.6682 9.98488 71.6523 9.99984C70.2354 9.98701 69.0841 8.8138 69.0841 7.36649C69.0841 5.91121 71.6759 3.25 71.6759 3.25C71.6759 3.25 74.2678 5.91121 74.2678 7.36649Z" fill="#E25822"/>
<path d="M73.4778 7.85765C73.4777 9.03145 72.6835 9.98463 71.6993 9.99947C71.6915 9.99965 71.6839 9.99965 71.6762 9.99965C72.2758 9.99947 72.7619 9.42153 72.7619 8.70862C72.7619 7.99345 71.6759 7.07967 71.6759 7.07967C71.6759 7.07967 70.5899 7.99345 70.5899 8.70862C70.5899 9.42118 71.0757 9.99888 71.6748 9.99965C71.6673 9.99965 71.6599 9.99965 71.6523 9.99947C70.6682 9.98451 69.8742 9.03127 69.874 7.85765C69.874 6.67125 71.6759 5.15527 71.6759 5.15527C71.6759 5.15527 73.4778 6.67125 73.4778 7.85765Z" fill="#E25822"/>
<path d="M71.6759 7.08008C71.6759 7.08008 72.7619 7.99386 72.7619 8.70903C72.7619 9.42194 72.2758 9.99988 71.6762 10.0001H71.6748C71.0757 9.99929 70.5899 9.42159 70.5899 8.70903C70.5899 7.99386 71.6759 7.08008 71.6759 7.08008Z" fill="#E25822"/>
</g>
<defs>
<clipPath id="clip0">
<rect width="6.75" height="6.75" fill="white" transform="translate(45 3)"/>
</clipPath>
<clipPath id="clip1">
<rect width="6.75" height="6.75" fill="white" transform="translate(56.7)"/>
</clipPath>
<clipPath id="clip2">
<rect width="6.75" height="6.75" fill="white" transform="translate(68.3 3.25)"/>
</clipPath>
</defs>
</svg>
