<svg width="30" height="30" viewBox="0 0 30 30" fill="none" xmlns="http://www.w3.org/2000/svg">
<path fill-rule="evenodd" clip-rule="evenodd" d="M20.05 21.1123C20.7 20.5248 21.55 20.1498 22.5 20.1498C24.5125 20.1498 26.15 21.7873 26.15 23.7998C26.15 25.8123 24.5125 27.4498 22.5 27.4498C20.4875 27.4498 18.85 25.8123 18.85 23.7998C18.85 23.5248 18.8875 23.2498 18.95 22.9873L10.05 17.7873C9.375 18.4123 8.4875 18.7998 7.5 18.7998C5.425 18.7998 3.75 17.1248 3.75 15.0498C3.75 12.9748 5.425 11.2998 7.5 11.2998C8.4875 11.2998 9.375 11.6873 10.05 12.3123L18.8625 7.1748C18.8 6.8873 18.75 6.5998 18.75 6.2998C18.75 4.2248 20.425 2.5498 22.5 2.5498C24.575 2.5498 26.25 4.2248 26.25 6.2998C26.25 8.3748 24.575 10.0498 22.5 10.0498C21.5125 10.0498 20.625 9.6623 19.95 9.0373L11.1375 14.1748C11.2 14.4623 11.25 14.7498 11.25 15.0498C11.25 15.3498 11.2 15.6373 11.1375 15.9248L20.05 21.1123ZM23.75 6.2998C23.75 5.6123 23.1875 5.0498 22.5 5.0498C21.8125 5.0498 21.25 5.6123 21.25 6.2998C21.25 6.98731 21.8125 7.54981 22.5 7.54981C23.1875 7.54981 23.75 6.98731 23.75 6.2998ZM7.5 16.2998C6.8125 16.2998 6.25 15.7373 6.25 15.0498C6.25 14.3623 6.8125 13.7998 7.5 13.7998C8.1875 13.7998 8.75 14.3623 8.75 15.0498C8.75 15.7373 8.1875 16.2998 7.5 16.2998ZM21.25 23.8247C21.25 24.5122 21.8125 25.0747 22.5 25.0747C23.1875 25.0747 23.75 24.5122 23.75 23.8247C23.75 23.1372 23.1875 22.5747 22.5 22.5747C21.8125 22.5747 21.25 23.1372 21.25 23.8247Z" fill="#0A84FF"/>
</svg>
