<svg width="32" height="41" viewBox="0 0 32 41" fill="none" xmlns="http://www.w3.org/2000/svg">
<rect x="3.13153" y="5.69727" width="2.34866" height="2.74011" fill="#E25822"/>
<path d="M14.8749 2.56543H17.2235V5.30554H14.8749V2.56543Z" fill="#E25822"/>
<rect x="26.6182" y="5.69727" width="2.34866" height="2.74011" fill="#E25822"/>
<path d="M30.3542 14.7371V11.558C30.3542 10.5633 29.5449 9.75405 28.5502 9.75405H28.2919V9.1327C29.0879 8.88729 29.6681 8.14477 29.6681 7.26929C29.6681 6.37455 28.5159 4.89303 28.1628 4.46023C28.0539 4.32674 27.8908 4.24937 27.7185 4.24937C27.5463 4.24937 27.3831 4.32681 27.2742 4.46023C26.9211 4.89303 25.7689 6.37455 25.7689 7.26929C25.7689 8.14477 26.3491 8.88721 27.1451 9.1327V9.75405H26.8868C25.8921 9.75405 25.0828 10.5633 25.0828 11.558V14.7371C24.1569 14.8497 23.4371 15.6401 23.4371 16.5959C23.4371 17.6287 24.2774 18.469 25.3102 18.469H25.9983V18.4915C25.9983 22.0207 23.1271 24.8918 19.598 24.8918H17.7413V15.2586H18.4548C19.4876 15.2586 20.3279 14.4183 20.3279 13.3855C20.3279 12.4297 19.6081 11.6393 18.6822 11.5267V8.34684C18.6822 7.35217 17.873 6.54291 16.8783 6.54291H16.6199V5.875C17.4027 5.62164 17.9706 4.886 17.9706 4.01993C17.9706 3.12519 16.8185 1.64367 16.4653 1.21086C16.3565 1.07745 16.1933 1 16.0211 1C15.8488 1 15.6857 1.07745 15.5768 1.21086C15.2236 1.64367 14.0715 3.12519 14.0715 4.01993C14.0715 4.90465 14.6642 5.65321 15.4731 5.8906V6.54291H15.2148C14.2201 6.54291 13.4109 7.35217 13.4109 8.34684V11.5267C12.485 11.6393 11.7652 12.4297 11.7652 13.3855C11.7652 14.4183 12.6055 15.2586 13.6383 15.2586H14.3009V24.8918H12.4442C8.91506 24.8918 6.04391 22.0207 6.04391 18.4915V18.469H6.68979C7.72261 18.469 8.56291 17.6287 8.56291 16.5959C8.56291 15.6401 7.8431 14.8497 6.91717 14.7371V11.558C6.91717 10.5633 6.1079 9.75405 5.11323 9.75405H4.8549V9.1327C5.65094 8.88729 6.23107 8.14477 6.23107 7.26929C6.23107 6.37455 5.07891 4.89303 4.72577 4.46023C4.6169 4.32674 4.45374 4.24937 4.28149 4.24937C4.10924 4.24937 3.94609 4.32681 3.83722 4.46023C3.484 4.89295 2.33184 6.37448 2.33184 7.26922C2.33184 8.14469 2.91198 8.88714 3.70801 9.13263V9.75397H3.44968C2.45501 9.75397 1.64575 10.5632 1.64575 11.5579V14.737C0.719813 14.8496 0 15.64 0 16.5958C0 17.6286 0.840304 18.4689 1.87312 18.4689H2.60341V18.4914C2.60341 19.7099 2.82459 20.9 3.26083 22.0289C3.34868 22.2563 3.56573 22.3957 3.79578 22.3957C3.86451 22.3957 3.93439 22.3832 4.00236 22.357C4.2977 22.2429 4.44465 21.9109 4.3305 21.6155C3.94548 20.6191 3.75022 19.568 3.75022 18.4915V18.469H4.89702V18.4915C4.89702 22.653 8.28263 26.0386 12.4442 26.0386H14.8743C15.1909 26.0386 15.4477 25.7819 15.4477 25.4652V15.2586H16.5945V25.4652C16.5945 25.7819 16.8512 26.0386 17.1679 26.0386H19.598C23.7595 26.0386 27.1451 22.653 27.1451 18.4915V18.469H28.2919V18.4915C28.2919 23.2854 24.3918 27.1855 19.598 27.1855H17.1679C16.8512 27.1855 16.5945 27.4422 16.5945 27.7589V33.7987H15.4477V27.7589C15.4477 27.4422 15.1909 27.1855 14.8743 27.1855H12.4442C9.76477 27.1855 7.27367 25.973 5.60957 23.8588C5.41362 23.6099 5.05322 23.567 4.80436 23.7628C4.5555 23.9587 4.51261 24.3192 4.70841 24.5681C6.59139 26.9602 9.41094 28.3322 12.4442 28.3322H14.3008V33.7987H10.9676C9.9348 33.7987 9.09449 34.639 9.09449 35.6718C9.09449 35.9293 9.14671 36.1747 9.24113 36.3981H8.64334C7.61052 36.3981 6.77022 37.2384 6.77022 38.2713C6.77022 39.3041 7.61052 40.1444 8.64334 40.1444H18.7838C19.5013 40.1444 19.534 38.9976 18.7838 38.9976H8.64326C8.2428 38.9976 7.91695 38.6717 7.91695 38.2713C7.91695 37.8708 8.2428 37.545 8.64326 37.545H23.3989C23.7993 37.545 24.1252 37.8708 24.1252 38.2713C24.1252 38.6717 23.7993 38.9976 23.3989 38.9976H21.831C21.1135 38.9976 21.0808 40.1444 21.831 40.1444H23.3989C24.4317 40.1444 25.272 39.3041 25.272 38.2713C25.272 37.2384 24.4317 36.3981 23.3989 36.3981H22.8011C22.8954 36.1747 22.9477 35.9293 22.9477 35.6718C22.9477 34.639 22.1074 33.7987 21.0746 33.7987H17.7414V28.3323H19.598C25.0243 28.3323 29.4388 23.9177 29.4388 18.4915V18.469H30.1269C31.1597 18.469 32 17.6287 32 16.5959C31.9999 15.6401 31.2801 14.8497 30.3542 14.7371ZM4.28142 5.76958C4.74113 6.41683 5.08418 7.04276 5.08418 7.26922C5.08418 7.71189 4.72408 8.07198 4.28142 8.07198C3.83875 8.07198 3.47865 7.71189 3.47865 7.26922C3.47865 7.04276 3.8217 6.41676 4.28142 5.76958ZM2.79255 11.5579C2.79255 11.1956 3.08728 10.9008 3.44968 10.9008H5.11316C5.47547 10.9008 5.77028 11.1956 5.77028 11.5579V14.7228H2.79255V11.5579ZM1.87312 17.3222C1.47265 17.3222 1.14681 16.9964 1.14681 16.5959C1.14681 16.1954 1.47265 15.8696 1.87312 15.8696H6.68971C7.09018 15.8696 7.41603 16.1954 7.41603 16.5959C7.41603 16.9964 7.09018 17.3222 6.68971 17.3222H1.87312ZM15.2183 4.01993C15.2183 3.79347 15.5613 3.16747 16.0211 2.52029C16.4808 3.16754 16.8238 3.79347 16.8238 4.01993C16.8238 4.4626 16.4637 4.82269 16.0211 4.82269C15.5784 4.82269 15.2183 4.4626 15.2183 4.01993ZM14.5577 8.34684C14.5577 7.98452 14.8525 7.68971 15.2148 7.68971C15.7617 7.66701 16.3314 7.66708 16.8783 7.68971C17.2406 7.68971 17.5354 7.98452 17.5354 8.34684V11.5117H14.5577V8.34684ZM13.6383 14.1118C13.2378 14.1118 12.912 13.786 12.912 13.3855C12.912 12.9851 13.2378 12.6592 13.6383 12.6592H18.4549C18.8554 12.6592 19.1812 12.9851 19.1812 13.3855C19.1812 13.786 18.8554 14.1118 18.4549 14.1118H13.6383ZM21.0745 34.9455C21.475 34.9455 21.8008 35.2714 21.8008 35.6718C21.8008 36.0723 21.475 36.3981 21.0745 36.3981H10.9676C10.5671 36.3981 10.2413 36.0723 10.2413 35.6718C10.2413 35.2714 10.5671 34.9455 10.9676 34.9455H21.0745ZM26.9157 7.26922C26.9157 7.04276 27.2588 6.41676 27.7185 5.76958C28.1782 6.41683 28.5213 7.04276 28.5213 7.26922C28.5213 7.71189 28.1612 8.07198 27.7185 8.07198C27.2758 8.07198 26.9157 7.71189 26.9157 7.26922ZM26.2296 11.5579C26.2296 11.1956 26.5245 10.9008 26.8868 10.9008H28.5502C28.9126 10.9008 29.2074 11.1956 29.2074 11.5579V14.7228C28.2148 14.7228 27.2222 14.7228 26.2296 14.7228V11.5579ZM30.1268 17.3222H25.3102C24.9097 17.3222 24.5839 16.9964 24.5839 16.5959C24.5839 16.1954 24.9097 15.8696 25.3102 15.8696H30.1268C30.5273 15.8696 30.8531 16.1954 30.8531 16.5959C30.8531 16.9964 30.5273 17.3222 30.1268 17.3222Z" fill="#D8D8D8"/>
<path d="M30.3542 14.7371V11.558C30.3542 10.5633 29.5449 9.75405 28.5502 9.75405H28.2919V9.1327C29.0879 8.88729 29.6681 8.14477 29.6681 7.26929C29.6681 6.37455 28.5159 4.89303 28.1628 4.46023C28.0539 4.32674 27.8908 4.24937 27.7185 4.24937C27.5463 4.24937 27.3831 4.32681 27.2742 4.46023C26.9211 4.89303 25.7689 6.37455 25.7689 7.26929C25.7689 8.14477 26.3491 8.88721 27.1451 9.1327V9.75405H26.8868C25.8921 9.75405 25.0828 10.5633 25.0828 11.558V14.7371C24.1569 14.8497 23.4371 15.6401 23.4371 16.5959C23.4371 17.6287 24.2774 18.469 25.3102 18.469H25.9983V18.4915C25.9983 22.0207 23.1271 24.8918 19.598 24.8918H17.7413V15.2586H18.4548C19.4876 15.2586 20.3279 14.4183 20.3279 13.3855C20.3279 12.4297 19.6081 11.6393 18.6822 11.5267V8.34684C18.6822 7.35217 17.873 6.54291 16.8783 6.54291H16.6199V5.875C17.4027 5.62164 17.9706 4.886 17.9706 4.01993C17.9706 3.12519 16.8185 1.64367 16.4653 1.21086C16.3565 1.07745 16.1933 1 16.0211 1C15.8488 1 15.6857 1.07745 15.5768 1.21086C15.2236 1.64367 14.0715 3.12519 14.0715 4.01993C14.0715 4.90465 14.6642 5.65321 15.4731 5.8906V6.54291H15.2148C14.2201 6.54291 13.4109 7.35217 13.4109 8.34684V11.5267C12.485 11.6393 11.7652 12.4297 11.7652 13.3855C11.7652 14.4183 12.6055 15.2586 13.6383 15.2586H14.3009V24.8918H12.4442C8.91506 24.8918 6.04391 22.0207 6.04391 18.4915V18.469H6.68979C7.72261 18.469 8.56291 17.6287 8.56291 16.5959C8.56291 15.6401 7.8431 14.8497 6.91717 14.7371V11.558C6.91717 10.5633 6.1079 9.75405 5.11323 9.75405H4.8549V9.1327C5.65094 8.88729 6.23107 8.14477 6.23107 7.26929C6.23107 6.37455 5.07891 4.89303 4.72577 4.46023C4.6169 4.32674 4.45374 4.24937 4.28149 4.24937C4.10924 4.24937 3.94609 4.32681 3.83722 4.46023C3.484 4.89295 2.33184 6.37448 2.33184 7.26922C2.33184 8.14469 2.91198 8.88714 3.70801 9.13263V9.75397H3.44968C2.45501 9.75397 1.64575 10.5632 1.64575 11.5579V14.737C0.719813 14.8496 0 15.64 0 16.5958C0 17.6286 0.840304 18.4689 1.87312 18.4689H2.60341V18.4914C2.60341 19.7099 2.82459 20.9 3.26083 22.0289C3.34868 22.2563 3.56573 22.3957 3.79578 22.3957C3.86451 22.3957 3.93439 22.3832 4.00236 22.357C4.2977 22.2429 4.44465 21.9109 4.3305 21.6155C3.94548 20.6191 3.75022 19.568 3.75022 18.4915V18.469H4.89702V18.4915C4.89702 22.653 8.28263 26.0386 12.4442 26.0386H14.8743C15.1909 26.0386 15.4477 25.7819 15.4477 25.4652V15.2586H16.5945V25.4652C16.5945 25.7819 16.8512 26.0386 17.1679 26.0386H19.598C23.7595 26.0386 27.1451 22.653 27.1451 18.4915V18.469H28.2919V18.4915C28.2919 23.2854 24.3918 27.1855 19.598 27.1855H17.1679C16.8512 27.1855 16.5945 27.4422 16.5945 27.7589V33.7987H15.4477V27.7589C15.4477 27.4422 15.1909 27.1855 14.8743 27.1855H12.4442C9.76477 27.1855 7.27367 25.973 5.60957 23.8588C5.41362 23.6099 5.05322 23.567 4.80436 23.7628C4.5555 23.9587 4.51261 24.3192 4.70841 24.5681C6.59139 26.9602 9.41094 28.3322 12.4442 28.3322H14.3008V33.7987H10.9676C9.9348 33.7987 9.09449 34.639 9.09449 35.6718C9.09449 35.9293 9.14671 36.1747 9.24113 36.3981H8.64334C7.61052 36.3981 6.77022 37.2384 6.77022 38.2713C6.77022 39.3041 7.61052 40.1444 8.64334 40.1444H18.7838C19.5013 40.1444 19.534 38.9976 18.7838 38.9976H8.64326C8.2428 38.9976 7.91695 38.6717 7.91695 38.2713C7.91695 37.8708 8.2428 37.545 8.64326 37.545H23.3989C23.7993 37.545 24.1252 37.8708 24.1252 38.2713C24.1252 38.6717 23.7993 38.9976 23.3989 38.9976H21.831C21.1135 38.9976 21.0808 40.1444 21.831 40.1444H23.3989C24.4317 40.1444 25.272 39.3041 25.272 38.2713C25.272 37.2384 24.4317 36.3981 23.3989 36.3981H22.8011C22.8954 36.1747 22.9477 35.9293 22.9477 35.6718C22.9477 34.639 22.1074 33.7987 21.0746 33.7987H17.7414V28.3323H19.598C25.0243 28.3323 29.4388 23.9177 29.4388 18.4915V18.469H30.1269C31.1597 18.469 32 17.6287 32 16.5959C31.9999 15.6401 31.2801 14.8497 30.3542 14.7371ZM4.28142 5.76958C4.74113 6.41683 5.08418 7.04276 5.08418 7.26922C5.08418 7.71189 4.72408 8.07198 4.28142 8.07198C3.83875 8.07198 3.47865 7.71189 3.47865 7.26922C3.47865 7.04276 3.8217 6.41676 4.28142 5.76958ZM2.79255 11.5579C2.79255 11.1956 3.08728 10.9008 3.44968 10.9008H5.11316C5.47547 10.9008 5.77028 11.1956 5.77028 11.5579V14.7228H2.79255V11.5579ZM1.87312 17.3222C1.47265 17.3222 1.14681 16.9964 1.14681 16.5959C1.14681 16.1954 1.47265 15.8696 1.87312 15.8696H6.68971C7.09018 15.8696 7.41603 16.1954 7.41603 16.5959C7.41603 16.9964 7.09018 17.3222 6.68971 17.3222H1.87312ZM15.2183 4.01993C15.2183 3.79347 15.5613 3.16747 16.0211 2.52029C16.4808 3.16754 16.8238 3.79347 16.8238 4.01993C16.8238 4.4626 16.4637 4.82269 16.0211 4.82269C15.5784 4.82269 15.2183 4.4626 15.2183 4.01993ZM14.5577 8.34684C14.5577 7.98452 14.8525 7.68971 15.2148 7.68971C15.7617 7.66701 16.3314 7.66708 16.8783 7.68971C17.2406 7.68971 17.5354 7.98452 17.5354 8.34684V11.5117H14.5577V8.34684ZM13.6383 14.1118C13.2378 14.1118 12.912 13.786 12.912 13.3855C12.912 12.9851 13.2378 12.6592 13.6383 12.6592H18.4549C18.8554 12.6592 19.1812 12.9851 19.1812 13.3855C19.1812 13.786 18.8554 14.1118 18.4549 14.1118H13.6383ZM21.0745 34.9455C21.475 34.9455 21.8008 35.2714 21.8008 35.6718C21.8008 36.0723 21.475 36.3981 21.0745 36.3981H10.9676C10.5671 36.3981 10.2413 36.0723 10.2413 35.6718C10.2413 35.2714 10.5671 34.9455 10.9676 34.9455H21.0745ZM26.9157 7.26922C26.9157 7.04276 27.2588 6.41676 27.7185 5.76958C28.1782 6.41683 28.5213 7.04276 28.5213 7.26922C28.5213 7.71189 28.1612 8.07198 27.7185 8.07198C27.2758 8.07198 26.9157 7.71189 26.9157 7.26922ZM26.2296 11.5579C26.2296 11.1956 26.5245 10.9008 26.8868 10.9008H28.5502C28.9126 10.9008 29.2074 11.1956 29.2074 11.5579V14.7228C28.2148 14.7228 27.2222 14.7228 26.2296 14.7228V11.5579ZM30.1268 17.3222H25.3102C24.9097 17.3222 24.5839 16.9964 24.5839 16.5959C24.5839 16.1954 24.9097 15.8696 25.3102 15.8696H30.1268C30.5273 15.8696 30.8531 16.1954 30.8531 16.5959C30.8531 16.9964 30.5273 17.3222 30.1268 17.3222Z" fill="#D8D8D8"/>
<g clip-path="url(#clip0)">
<path d="M6.96777 7.11649C6.96777 8.56392 5.81609 9.73712 4.39925 9.74984C5.38348 9.73499 6.17766 8.78182 6.17778 7.60802C6.17778 6.42162 4.37588 4.90564 4.37588 4.90564C4.37588 4.90564 2.57399 6.42162 2.57399 7.60802C2.57416 8.78164 3.36823 9.73488 4.35228 9.74984C2.93544 9.73701 1.78406 8.5638 1.78406 7.11649C1.78406 5.66121 4.37588 3 4.37588 3C4.37588 3 6.96777 5.66121 6.96777 7.11649Z" fill="#E25822"/>
<path d="M6.1778 7.60765C6.17768 8.78145 5.3835 9.73463 4.39927 9.74947C4.39152 9.74965 4.38395 9.74965 4.3762 9.74965C4.97585 9.74947 5.46193 9.17153 5.46193 8.45862C5.46193 7.74345 4.3759 6.82967 4.3759 6.82967C4.3759 6.82967 3.28994 7.74345 3.28994 8.45862C3.28994 9.17118 3.77572 9.74888 4.37484 9.74965C4.36727 9.74965 4.35987 9.74965 4.3523 9.74947C3.36825 9.73451 2.57418 8.78127 2.57401 7.60765C2.57401 6.42125 4.3759 4.90527 4.3759 4.90527C4.3759 4.90527 6.1778 6.42125 6.1778 7.60765Z" fill="#E25822"/>
<path d="M4.37588 6.83008C4.37588 6.83008 5.46191 7.74386 5.46191 8.45903C5.46191 9.17194 4.97582 9.74988 4.37618 9.75006H4.37482C3.7757 9.74929 3.28992 9.17159 3.28992 8.45903C3.28992 7.74386 4.37588 6.83008 4.37588 6.83008Z" fill="#E25822"/>
</g>
<g clip-path="url(#clip1)">
<path d="M18.6678 4.11649C18.6678 5.56392 17.5161 6.73712 16.0993 6.74984C17.0835 6.73499 17.8777 5.78182 17.8778 4.60802C17.8778 3.42162 16.0759 1.90564 16.0759 1.90564C16.0759 1.90564 14.274 3.42162 14.274 4.60802C14.2742 5.78164 15.0682 6.73488 16.0523 6.74984C14.6355 6.73701 13.4841 5.5638 13.4841 4.11649C13.4841 2.66121 16.0759 0 16.0759 0C16.0759 0 18.6678 2.66121 18.6678 4.11649Z" fill="#E25822"/>
<path d="M17.8778 4.60765C17.8777 5.78145 17.0835 6.73463 16.0993 6.74947C16.0915 6.74965 16.084 6.74965 16.0762 6.74965C16.6759 6.74947 17.1619 6.17153 17.1619 5.45862C17.1619 4.74345 16.0759 3.82967 16.0759 3.82967C16.0759 3.82967 14.99 4.74345 14.99 5.45862C14.99 6.17118 15.4757 6.74888 16.0749 6.74965C16.0673 6.74965 16.0599 6.74965 16.0523 6.74947C15.0683 6.73451 14.2742 5.78127 14.274 4.60765C14.274 3.42125 16.0759 1.90527 16.0759 1.90527C16.0759 1.90527 17.8778 3.42125 17.8778 4.60765Z" fill="#E25822"/>
<path d="M16.0759 3.83008C16.0759 3.83008 17.1619 4.74386 17.1619 5.45903C17.1619 6.17194 16.6758 6.74988 16.0762 6.75006H16.0748C15.4757 6.74929 14.9899 6.17159 14.9899 5.45903C14.9899 4.74386 16.0759 3.83008 16.0759 3.83008Z" fill="#E25822"/>
</g>
<g clip-path="url(#clip2)">
<path d="M30.2678 7.36649C30.2678 8.81392 29.1161 9.98712 27.6992 9.99984C28.6835 9.98499 29.4777 9.03182 29.4778 7.85802C29.4778 6.67162 27.6759 5.15564 27.6759 5.15564C27.6759 5.15564 25.874 6.67162 25.874 7.85802C25.8742 9.03164 26.6682 9.98488 27.6523 9.99984C26.2354 9.98701 25.084 8.8138 25.084 7.36649C25.084 5.91121 27.6759 3.25 27.6759 3.25C27.6759 3.25 30.2678 5.91121 30.2678 7.36649Z" fill="#E25822"/>
<path d="M29.4778 7.85765C29.4777 9.03145 28.6835 9.98463 27.6993 9.99947C27.6915 9.99965 27.6839 9.99965 27.6762 9.99965C28.2758 9.99947 28.7619 9.42153 28.7619 8.70862C28.7619 7.99345 27.6759 7.07967 27.6759 7.07967C27.6759 7.07967 26.5899 7.99345 26.5899 8.70862C26.5899 9.42118 27.0757 9.99888 27.6748 9.99965C27.6673 9.99965 27.6599 9.99965 27.6523 9.99947C26.6682 9.98451 25.8742 9.03127 25.874 7.85765C25.874 6.67125 27.6759 5.15527 27.6759 5.15527C27.6759 5.15527 29.4778 6.67125 29.4778 7.85765Z" fill="#E25822"/>
<path d="M27.6759 7.08008C27.6759 7.08008 28.7619 7.99386 28.7619 8.70903C28.7619 9.42194 28.2758 9.99988 27.6762 10.0001H27.6748C27.0757 9.99929 26.5899 9.42159 26.5899 8.70903C26.5899 7.99386 27.6759 7.08008 27.6759 7.08008Z" fill="#E25822"/>
</g>
<defs>
<clipPath id="clip0">
<rect width="6.75" height="6.75" fill="white" transform="translate(1 3)"/>
</clipPath>
<clipPath id="clip1">
<rect width="6.75" height="6.75" fill="white" transform="translate(12.7)"/>
</clipPath>
<clipPath id="clip2">
<rect width="6.75" height="6.75" fill="white" transform="translate(24.3 3.25)"/>
</clipPath>
</defs>
</svg>
