<svg width="120" height="10" viewBox="0 0 120 10" fill="none" xmlns="http://www.w3.org/2000/svg">
<path d="M0 10C0 4.47715 4.47715 0 10 0H110C115.523 0 120 4.47715 120 10V10H0V10Z" fill="#202020"/>
<path d="M72.581 4.36927C72.4955 3.90684 72.2281 3.50376 71.8299 3.23523C71.431 2.96658 70.9474 2.8649 70.4699 2.94762C70.3758 2.96367 70.3121 3.05125 70.3304 3.14237C70.3467 3.23383 70.4381 3.29361 70.5316 3.2781C70.921 3.21153 71.3097 3.29415 71.6322 3.5113C71.9545 3.72878 72.1699 4.05441 72.2396 4.42948C72.3304 4.91679 72.2118 5.42715 71.9139 5.82926C71.7337 6.07323 71.4952 6.25754 71.2285 6.38281C71.8373 5.89485 71.9369 5.01987 71.4425 4.41774C71.0287 3.91761 70.2716 3.83262 69.7542 4.23311C69.3256 4.56466 69.2544 5.17068 69.5956 5.58711C69.7331 5.75515 69.9309 5.86135 70.1517 5.88559C70.3745 5.90789 70.5905 5.84875 70.7639 5.71497C70.8052 5.68351 70.8228 5.63827 70.8241 5.5898C70.8541 5.53799 70.875 5.48219 70.875 5.41918C70.875 5.22249 70.711 5.06242 70.5072 5.06242C70.3033 5.06242 70.1402 5.22249 70.1402 5.41918C70.1402 5.46183 70.1509 5.50384 70.1652 5.54316C70.0481 5.52345 69.9424 5.4684 69.8679 5.37792C69.6451 5.10691 69.6912 4.71019 69.9702 4.49572C70.3372 4.21243 70.8776 4.27135 71.1703 4.62757C71.5509 5.0914 71.4716 5.76893 70.9921 6.13872C70.3772 6.61225 69.6572 6.52704 68.9645 5.89927C68.9353 5.8731 68.8968 5.86523 68.8608 5.86189C68.5276 5.54973 68.1836 5.14299 67.7854 4.65504C67.6059 4.4367 67.4332 4.20155 67.2598 3.9663C67.3186 3.97653 67.3783 3.99 67.4385 3.99C67.6227 3.99 67.8083 3.94142 67.9905 3.84275C68.4523 3.59091 68.6162 3.02292 68.3569 2.57546C68.252 2.39407 68.0799 2.26298 67.8726 2.20718C67.6654 2.15084 67.4493 2.17702 67.2631 2.2787C66.9374 2.45514 66.8208 2.85617 67.0044 3.17297C67.1602 3.44193 67.5124 3.53694 67.79 3.38517C67.8564 3.34908 67.8766 3.27659 67.8624 3.20743C67.8658 3.19656 67.8774 3.19138 67.8793 3.17921C67.8969 3.05954 67.8129 2.94859 67.6897 2.9306C67.5699 2.91391 67.4602 2.99383 67.4391 3.1079C67.3857 3.09186 67.3375 3.05879 67.307 3.00859C67.2175 2.85402 67.2745 2.65797 67.4344 2.57105C67.54 2.51331 67.6633 2.49855 67.7804 2.53097C67.8983 2.56254 67.9964 2.63686 68.0561 2.74027C68.222 3.02658 68.1164 3.38991 67.8218 3.55094C67.3309 3.81991 66.9475 3.51486 66.7416 3.27648C65.889 2.16075 64.9151 1.15587 63.2132 1.15587C63.2099 1.15587 63.2051 1.15587 63.2004 1.15587C62.3613 1.15877 61.5993 1.48451 61.0572 2.07221C60.8118 2.33816 60.6343 2.65625 60.4995 2.99502V2.35421C60.526 2.33321 60.5543 2.31522 60.5743 2.2856L61.0051 1.66978C61.0412 1.61797 61.0447 1.55237 61.0149 1.49722C60.9851 1.44218 60.9261 1.40771 60.8615 1.40771H60.7166C60.7173 1.39909 60.7216 1.3923 60.7216 1.38304C60.7216 1.17116 60.5439 1 60.3254 1C60.1077 1 59.9303 1.17116 59.9303 1.38304C59.9303 1.39166 59.9344 1.39909 59.9349 1.40771H59.7534C59.6887 1.40771 59.6299 1.44218 59.6001 1.49722C59.5703 1.55226 59.5736 1.61851 59.6098 1.66978L60.0413 2.2856C60.0717 2.32922 60.1103 2.3624 60.1527 2.38696V3.07828C60.0176 2.70601 59.8249 2.35938 59.5584 2.0707C59.0156 1.483 58.254 1.15705 57.4143 1.15447C57.4098 1.15447 57.4065 1.15447 57.4017 1.15447C55.7005 1.15447 54.727 2.15989 53.8733 3.27562C53.6684 3.514 53.2865 3.8184 52.7935 3.55008C52.4978 3.38904 52.3925 3.02572 52.5591 2.73941C52.6187 2.63675 52.7173 2.56232 52.8351 2.53022C52.953 2.4978 53.0747 2.51256 53.1818 2.57094C53.3407 2.65679 53.3975 2.85294 53.3089 3.00773C53.2787 3.05857 53.2302 3.09099 53.1767 3.10769C53.1547 2.99351 53.0457 2.91358 52.9258 2.93039C52.8016 2.94773 52.7173 3.05857 52.7359 3.179C52.7372 3.19106 52.7498 3.19634 52.7531 3.20722C52.7392 3.27648 52.7585 3.34822 52.8252 3.38495C53.1025 3.53672 53.455 3.44075 53.6117 3.172C53.7939 2.85585 53.6774 2.45482 53.3523 2.27838C53.1658 2.17605 52.9494 2.15041 52.7425 2.20686C52.5353 2.26265 52.3633 2.39374 52.2581 2.57514C51.998 3.02249 52.163 3.59123 52.6248 3.84242C52.8066 3.94109 52.9924 3.98967 53.1766 3.98967C53.2366 3.98967 53.2962 3.97621 53.355 3.96597C53.1816 4.20112 53.009 4.43691 52.8298 4.65471C52.4313 5.14202 52.0886 5.54811 51.7565 5.86028C51.7182 5.86286 51.6803 5.87148 51.6505 5.8983C50.957 6.52672 50.2378 6.61192 49.6232 6.13711C49.144 5.7685 49.0645 5.08957 49.445 4.62595C49.739 4.27038 50.2774 4.21081 50.6461 4.494C50.9251 4.70986 50.9715 5.1054 50.7486 5.37491C50.6744 5.4655 50.5684 5.52183 50.4513 5.54154C50.4659 5.50223 50.477 5.46162 50.477 5.41767C50.477 5.22087 50.3131 5.06091 50.1093 5.06091C49.9055 5.06091 49.7412 5.22087 49.7412 5.41767C49.7412 5.48058 49.7625 5.53702 49.7923 5.58819C49.7937 5.63483 49.8119 5.68061 49.8526 5.71346C50.026 5.84724 50.2423 5.90627 50.4645 5.88268C50.685 5.85898 50.8827 5.75342 51.0205 5.58549C51.3619 5.16971 51.2911 4.56294 50.8617 4.23139C50.3429 3.8323 49.5865 3.91556 49.173 4.41677C48.6793 5.01815 48.7778 5.89388 49.3873 6.38249C49.1198 6.25581 48.8818 6.07291 48.7016 5.82764C48.404 5.42424 48.2854 4.91528 48.3762 4.42657C48.4456 4.05204 48.6612 3.72641 48.9837 3.50872C49.3063 3.29188 49.6975 3.21002 50.0842 3.27583C50.1773 3.29124 50.2687 3.23156 50.2853 3.14011C50.3018 3.04855 50.2396 2.96141 50.1455 2.94525C49.6683 2.86253 49.1848 2.964 48.7863 3.23286C48.3873 3.5015 48.1202 3.90447 48.0352 4.36754C47.9282 4.9435 48.0677 5.54682 48.4191 6.02304C48.7619 6.48611 49.2667 6.78976 49.8399 6.87508C51.277 7.08825 52.1232 6.05708 53.1014 4.86272C53.1066 4.85679 53.1112 4.84893 53.116 4.84365C53.1167 4.84365 53.1181 4.84365 53.1195 4.84236C53.3303 4.61594 53.7591 4.2832 54.2582 4.60549C54.5399 4.78731 54.6175 5.15581 54.4323 5.42877C54.2925 5.63073 54.008 5.68588 53.7983 5.55081C53.7241 5.50417 53.6744 5.43146 53.6571 5.34744C53.6395 5.26342 53.6571 5.1794 53.7056 5.10928C53.7438 5.05348 53.8021 5.02472 53.8644 5.01686C53.8851 5.12576 53.983 5.20708 54.0994 5.19793C54.2243 5.18737 54.3151 5.08256 54.3049 4.96181C54.3033 4.94479 54.2874 4.93424 54.2812 4.91916C54.2854 4.86078 54.27 4.80315 54.2158 4.76771C53.951 4.59849 53.5931 4.66861 53.4177 4.9225C53.3179 5.06813 53.2819 5.24263 53.3172 5.41379C53.3528 5.58635 53.4553 5.73468 53.6064 5.83162C53.7432 5.91952 53.8969 5.96153 54.0504 5.96153C54.3104 5.96153 54.5671 5.83949 54.7214 5.61447C55.012 5.18748 54.8907 4.61033 54.4512 4.32693C54.1932 4.1604 53.9159 4.10461 53.6433 4.15448C53.6784 4.1059 53.7154 4.06098 53.7513 4.01251C53.8901 3.82454 54.0303 3.63636 54.1729 3.45098C54.1779 3.44506 54.1834 3.44086 54.1882 3.43493C54.1898 3.43364 54.1882 3.4317 54.1898 3.42976C54.9839 2.40128 55.89 1.48989 57.4039 1.48989C57.4073 1.48989 57.4111 1.48989 57.4144 1.48989C58.1542 1.49183 58.8241 1.77814 59.3004 2.29368C59.8351 2.87287 60.0863 3.69141 59.9912 4.53957C59.9211 5.15872 59.6062 5.71486 59.1044 6.10587C58.6398 6.4678 58.0661 6.63584 57.4773 6.60826C57.1224 6.55052 56.8367 6.3925 56.6534 6.1426C56.433 5.84089 56.3609 5.41842 56.4557 4.98293C56.517 4.70222 56.6867 4.46212 56.9351 4.30539C57.1834 4.14898 57.4807 4.09513 57.7712 4.15513C57.9954 4.20069 58.1867 4.32823 58.3109 4.51328C58.4342 4.69823 58.4765 4.91927 58.4288 5.13491C58.3937 5.29767 58.295 5.43674 58.1508 5.52916C58.0058 5.62104 57.8338 5.65443 57.6612 5.6177C57.5467 5.594 57.4502 5.52851 57.3801 5.43792C57.5515 5.40647 57.6819 5.26611 57.6799 5.09021C57.6772 4.89417 57.5106 4.73615 57.3074 4.73863C57.1544 4.74003 57.0253 4.83245 56.9718 4.96041C56.9657 4.9728 56.9525 4.97808 56.9492 4.99187C56.942 5.02267 56.9505 5.05348 56.9475 5.08429C56.9475 5.08957 56.9448 5.0942 56.9448 5.09948C56.9448 5.10335 56.9468 5.10658 56.9475 5.11068C56.9366 5.27979 56.9671 5.44912 57.0639 5.59476C57.1855 5.77507 57.3721 5.8997 57.5898 5.94494C57.8498 5.99805 58.1166 5.95022 58.3408 5.80911C58.5626 5.66876 58.7146 5.45289 58.7685 5.2031C58.8352 4.90009 58.7763 4.58922 58.6015 4.32941C58.4268 4.06874 58.1569 3.8896 57.8427 3.82497C57.4628 3.74559 57.0724 3.81679 56.7455 4.02242C56.4198 4.22805 56.1963 4.54312 56.116 4.91173C56.0215 5.34475 56.0738 5.767 56.247 6.11535C56.1823 6.05697 56.1167 5.99923 56.0604 5.93105C55.7434 5.5493 55.5993 5.07061 55.6548 4.58308C55.7435 3.79804 56.4787 3.23264 57.2873 3.313C57.3787 3.32118 57.4674 3.2572 57.4779 3.16413C57.4885 3.07203 57.4197 2.98931 57.3242 2.97951C56.3267 2.8733 55.4185 3.57647 55.3095 4.54657C55.2445 5.12307 55.4148 5.68847 55.7899 6.14109C56.1652 6.59297 56.6991 6.87626 57.294 6.93863C57.3547 6.9452 57.4143 6.9452 57.4746 6.94778C57.4837 6.94908 57.4911 6.95306 57.5009 6.95435C57.5084 6.95511 57.5155 6.95575 57.5229 6.95575C57.5266 6.95575 57.5294 6.95241 57.5334 6.95177C57.5547 6.95241 57.5771 6.95511 57.5987 6.95511C58.2235 6.95511 58.8259 6.7498 59.3199 6.36601C59.7018 6.06817 59.9784 5.6819 60.1518 5.25157V6.27736C59.4458 6.35351 58.8938 6.92807 58.8938 7.63114C58.8938 8.38612 59.5278 9 60.3072 9C61.0866 9 61.7202 8.38612 61.7202 7.63114C61.7202 6.94111 61.1858 6.37236 60.4985 6.28134V5.33484C60.6732 5.73102 60.937 6.08777 61.2935 6.3659C61.7885 6.74959 62.3899 6.955 63.0144 6.955C63.0361 6.955 63.0577 6.95231 63.0801 6.95166C63.0842 6.95166 63.087 6.95565 63.091 6.95565C63.0984 6.95565 63.1052 6.95565 63.1126 6.95425C63.1221 6.95295 63.1288 6.94897 63.139 6.94768C63.1985 6.94509 63.2588 6.94509 63.3184 6.93852C63.9138 6.87615 64.4488 6.5921 64.8232 6.14099C65.197 5.68976 65.3683 5.12296 65.3034 4.54646C65.1937 3.57636 64.2882 2.87513 63.2886 2.97875C63.1938 2.98855 63.1247 3.07117 63.1348 3.16338C63.1464 3.25591 63.2371 3.32054 63.3251 3.31235C64.1351 3.23199 64.8699 3.79675 64.9572 4.58244C65.0121 5.06921 64.8678 5.54801 64.5516 5.92975C64.4955 5.99794 64.4304 6.05568 64.3648 6.11406C64.5382 5.76581 64.5896 5.3427 64.4955 4.91043C64.4148 4.54183 64.1921 4.226 63.8656 4.02102C63.5392 3.81539 63.1492 3.74429 62.7686 3.82357C62.455 3.88788 62.1848 4.06723 62.0101 4.32801C61.8361 4.58771 61.7764 4.89869 61.8428 5.20094C61.897 5.45214 62.0493 5.66736 62.2709 5.80771C62.4944 5.94807 62.7598 5.99525 63.0219 5.94279C63.2392 5.89819 63.4262 5.77367 63.5475 5.59325C63.6458 5.44826 63.6754 5.27904 63.664 5.10917C63.664 5.10529 63.6673 5.10206 63.6673 5.09797C63.6673 5.09204 63.664 5.08752 63.664 5.08289C63.6613 5.05208 63.6701 5.02127 63.6627 4.99047C63.6592 4.97474 63.6443 4.96741 63.6362 4.95373C63.5814 4.82835 63.454 4.73852 63.3044 4.73723C63.1012 4.73464 62.9347 4.89212 62.932 5.08881C62.9298 5.26461 63.0605 5.40507 63.2312 5.43652C63.1607 5.527 63.0653 5.59131 62.9509 5.61619C62.7788 5.65098 62.6069 5.61942 62.4613 5.52776C62.317 5.43523 62.2175 5.29617 62.1837 5.13222C62.1362 4.917 62.1782 4.69662 62.3016 4.51167C62.4268 4.32672 62.6178 4.19972 62.8406 4.15351C63.1311 4.09287 63.4284 4.14662 63.677 4.30367C63.9249 4.46039 64.0956 4.7006 64.1559 4.98131C64.2513 5.41681 64.1796 5.83917 63.9588 6.14099C63.7747 6.39143 63.4883 6.54891 63.1334 6.60654C62.5469 6.63551 61.9719 6.465 61.508 6.10415C61.0058 5.71324 60.6912 5.157 60.6218 4.53784C60.5267 3.68914 60.7785 2.87125 61.3123 2.29206C61.789 1.77588 62.4582 1.49022 63.1983 1.48817C63.2017 1.48817 63.2058 1.48817 63.2099 1.48817C64.7241 1.48817 65.6297 2.39956 66.424 3.42804C66.4253 3.42944 66.424 3.43138 66.4261 3.43267C66.4308 3.43859 66.4362 3.4428 66.4402 3.44807C66.5838 3.63399 66.7241 3.82228 66.8629 4.01014C66.8988 4.05937 66.9353 4.10428 66.9713 4.15243C66.6977 4.10224 66.4208 4.15803 66.1626 4.32467C65.7231 4.60807 65.6012 5.18586 65.8924 5.61285C66.0469 5.83712 66.3021 5.95852 66.5628 5.95852C66.7158 5.95852 66.8697 5.91715 67.0078 5.83001C67.1587 5.73156 67.261 5.58409 67.297 5.41153C67.3321 5.23961 67.297 5.06522 67.1961 4.92024C67.0207 4.66635 66.6625 4.59547 66.3983 4.76599C66.3441 4.80002 66.3278 4.85851 66.3326 4.91679C66.3271 4.93252 66.3117 4.94307 66.3089 4.96009C66.2987 5.08009 66.3895 5.18576 66.5148 5.19556C66.6313 5.20547 66.7281 5.12414 66.7491 5.01384C66.8114 5.023 66.8697 5.05197 66.9082 5.10691C66.9564 5.17649 66.974 5.2618 66.9564 5.34572C66.9395 5.42963 66.8892 5.50115 66.8149 5.54908C66.605 5.68427 66.3199 5.62912 66.1818 5.4264C65.9955 5.1543 66.074 4.7843 66.3552 4.60323C66.8542 4.28083 67.2823 4.61378 67.4935 4.83999C67.4943 4.84063 67.4961 4.84063 67.4976 4.84203C67.5023 4.84731 67.507 4.85442 67.5125 4.86035C68.4904 6.05406 69.3356 7.08512 70.7727 6.87271C71.3469 6.78815 71.8521 6.48503 72.1948 6.02002C72.5477 5.54855 72.6886 4.94566 72.581 4.36927ZM60.1524 6.6898V8.58152C60.0061 8.4319 59.8652 8.09604 59.8652 7.63501C59.8652 7.17399 60.0061 6.83673 60.1524 6.6898ZM60.4992 8.52831V6.74161C60.6309 6.90685 60.7497 7.2132 60.7497 7.63491C60.7504 8.05662 60.6309 8.36232 60.4992 8.52831ZM59.2412 7.63491C59.2412 7.29646 59.4125 6.99938 59.6732 6.80915C59.5767 7.03665 59.5184 7.31822 59.5184 7.63491C59.5184 7.95299 59.576 8.23381 59.6732 8.46077C59.4125 8.27184 59.2412 7.97335 59.2412 7.63491ZM61.3741 7.63491C61.3741 7.97335 61.2027 8.27184 60.9424 8.46077C61.0389 8.23381 61.0972 7.95299 61.0972 7.63491C61.0972 7.31876 61.0396 7.03665 60.9424 6.80915C61.2027 6.99938 61.3741 7.29657 61.3741 7.63491Z" fill="white"/>
</svg>
