<svg width="30" height="30" viewBox="0 0 30 30" fill="none" xmlns="http://www.w3.org/2000/svg">
<path fill-rule="evenodd" clip-rule="evenodd" d="M15 6.14375C16.3625 4.54375 18.45 3.53125 20.625 3.53125C24.475 3.53125 27.5 6.55625 27.5 10.4063C27.5 15.1274 23.257 18.9749 16.8283 24.8044L16.8125 24.8188L15 26.4688L13.1875 24.8313L13.1382 24.7864C6.72829 18.9616 2.5 15.1192 2.5 10.4063C2.5 6.55625 5.525 3.53125 9.375 3.53125C11.55 3.53125 13.6375 4.54375 15 6.14375ZM15 23.0938L15.125 22.9688C21.075 17.5813 25 14.0188 25 10.4063C25 7.90627 23.125 6.03127 20.625 6.03127C18.7 6.03127 16.825 7.26877 16.175 8.98127H13.8375C13.175 7.26877 11.3 6.03127 9.37503 6.03127C6.87503 6.03127 5.00003 7.90627 5.00003 10.4063C5.00003 14.0188 8.92503 17.5813 14.875 22.9688L15 23.0938Z" fill="#FF6C63"/>
</svg>
