<svg width="30" height="30" viewBox="0 0 30 30" fill="none" xmlns="http://www.w3.org/2000/svg">
<path fill-rule="evenodd" clip-rule="evenodd" d="M3.4375 7.5C3.4375 6.4625 4.275 5.625 5.3125 5.625C6.35 5.625 7.1875 6.4625 7.1875 7.5C7.1875 8.5375 6.35 9.375 5.3125 9.375C4.275 9.375 3.4375 8.5375 3.4375 7.5ZM3.4375 15C3.4375 13.9625 4.275 13.125 5.3125 13.125C6.35 13.125 7.1875 13.9625 7.1875 15C7.1875 16.0375 6.35 16.875 5.3125 16.875C4.275 16.875 3.4375 16.0375 3.4375 15ZM5.3125 20.625C4.275 20.625 3.4375 21.475 3.4375 22.5C3.4375 23.525 4.2875 24.375 5.3125 24.375C6.3375 24.375 7.1875 23.525 7.1875 22.5C7.1875 21.475 6.35 20.625 5.3125 20.625ZM26.5625 23.7499H9.0625V21.2499H26.5625V23.7499ZM9.0625 16.2499H26.5625V13.7499H9.0625V16.2499ZM9.0625 8.74994V6.24993H26.5625V8.74994H9.0625Z" fill="#FFC463"/>
</svg>
