<svg width="40" height="40" viewBox="0 0 40 40" fill="none" xmlns="http://www.w3.org/2000/svg">
<circle opacity="0.5" cx="20" cy="20" r="20" fill="#C4C4C4"/>
<path d="M17.0195 25.9922C17.0456 24.4427 17.2214 23.2188 17.5469 22.3203C17.8724 21.4219 18.5365 20.4258 19.5391 19.332L22.0977 16.6953C23.1914 15.4583 23.7383 14.1302 23.7383 12.7109C23.7383 11.3438 23.3802 10.276 22.6641 9.50781C21.9479 8.72656 20.9062 8.33594 19.5391 8.33594C18.2109 8.33594 17.1432 8.6875 16.3359 9.39062C15.5286 10.0938 15.125 11.0378 15.125 12.2227H11.5117C11.5378 10.1133 12.2865 8.41406 13.7578 7.125C15.2422 5.82292 17.1693 5.17188 19.5391 5.17188C22 5.17188 23.9141 5.83594 25.2812 7.16406C26.6615 8.47917 27.3516 10.2891 27.3516 12.5938C27.3516 14.8724 26.2969 17.1185 24.1875 19.332L22.0586 21.4414C21.1081 22.4961 20.6328 24.013 20.6328 25.9922H17.0195ZM16.8633 32.1836C16.8633 31.5977 17.0391 31.1094 17.3906 30.7188C17.7552 30.3151 18.2891 30.1133 18.9922 30.1133C19.6953 30.1133 20.2292 30.3151 20.5938 30.7188C20.9583 31.1094 21.1406 31.5977 21.1406 32.1836C21.1406 32.7695 20.9583 33.2578 20.5938 33.6484C20.2292 34.026 19.6953 34.2148 18.9922 34.2148C18.2891 34.2148 17.7552 34.026 17.3906 33.6484C17.0391 33.2578 16.8633 32.7695 16.8633 32.1836Z" fill="black"/>
</svg>
