<svg width="50" height="50" viewBox="0 0 50 50" fill="none" xmlns="http://www.w3.org/2000/svg">
<path fill-rule="evenodd" clip-rule="evenodd" d="M36.4585 7.2915C38.896 7.2915 41.4377 7.604 43.7502 8.33317C45.3127 8.854 46.6668 9.479 47.9168 10.4165V40.8332C47.9168 41.354 47.396 41.8748 46.8752 41.8748C46.6668 41.8748 46.5627 41.8748 46.3543 41.7707C43.4377 40.2082 39.896 39.5832 36.4585 39.5832C32.9168 39.5832 27.8127 40.9373 25.0002 42.7082C21.9793 40.4165 17.6043 39.5832 13.5418 39.5832C10.521 39.5832 6.4585 40.5207 3.646 41.8748C3.54183 41.8748 3.4637 41.9009 3.38558 41.9269C3.30745 41.953 3.22933 41.979 3.12516 41.979C2.60433 41.979 2.0835 41.4582 2.0835 40.9373V10.4165C5.10433 8.12484 9.47933 7.2915 13.5418 7.2915C17.6043 7.2915 21.9793 8.12484 25.0002 10.4165C28.021 8.12484 32.396 7.2915 36.4585 7.2915ZM36.4585 35.4165C38.9585 35.4165 41.4585 35.729 43.7502 36.4582V12.4998C41.4585 11.7707 38.9585 11.4582 36.4585 11.4582C32.9168 11.4582 27.8127 12.8123 25.0002 14.5832V38.5415C27.8127 36.7707 32.9168 35.4165 36.4585 35.4165Z" fill="#BAAB8F"/>
</svg>
